<svg xmlns="http://www.w3.org/2000/svg" width="52" height="48" fill="none"><g filter="url(#a)"><path fill="#fff" d="m17.938 18.789-5.04-5.04a2.184 2.184 0 0 0-3.089 3.09L22.57 29.6l-2.669.23q-1.272.111-2.516.404l-.88.209a2.064 2.064 0 0 0 .256 4.061l.129.014c2.392.254 4.75.77 7.03 1.539l3.795 1.28 7.181 2.3 9.325-9.326c-2.03-4.837-4.372-9.644-8.059-13.376l-.094-.095c-.892-.892-1.998-1.546-3.025-2.014-1.866-.851-3.971-.16-5.421 1.29a2.277 2.277 0 0 0-3.221 0l-1.479 1.48a2.68 2.68 0 0 0-3.789 0z"/><path stroke="#313131" stroke-width="2" d="m25.268 32.298-2.7-2.7m.721-5.457-5.352-5.352m0 0-5.038-5.04a2.184 2.184 0 0 0-3.09 3.09L22.57 29.6m-4.631-10.81 1.194-1.195a2.68 2.68 0 0 1 3.79 0m3.457 3.458-3.458-3.458m0 0 1.479-1.479c.89-.889 2.331-.889 3.22 0m3.127 3.126-3.126-3.125m0 0c1.45-1.45 3.555-2.142 5.42-1.291 1.028.468 2.134 1.122 3.026 2.014l.094.095c3.687 3.732 6.03 8.539 8.059 13.376l-9.325 9.325-7.181-2.3-3.795-1.28a33 33 0 0 0-7.03-1.538l-.129-.014a2.064 2.064 0 0 1-.257-4.062l.881-.208q1.244-.293 2.516-.404l2.669-.23"/></g><path stroke="#026CB9" stroke-linecap="round" stroke-width="2" d="m15.216 11.433 3.86-3.861M2.859 23.79l4.634-4.634M2.859 6.8l4.634 4.633M11.354 6.027v3.09M2.087 15.295h3.089"/><defs><filter id="a" width="47.232" height="38.663" x="4.17" y="9.11" color-interpolation-filters="sRGB" filterUnits="userSpaceOnUse"><feFlood flood-opacity="0" result="BackgroundImageFix"/><feColorMatrix in="SourceAlpha" result="hardAlpha" values="0 0 0 0 0 0 0 0 0 0 0 0 0 0 0 0 0 0 127 0"/><feOffset dx="1" dy="2"/><feGaussianBlur stdDeviation="2.5"/><feComposite in2="hardAlpha" operator="out"/><feColorMatrix values="0 0 0 0 0.722396 0 0 0 0 0.761979 0 0 0 0 0.791667 0 0 0 1 0"/><feBlend in2="BackgroundImageFix" result="effect1_dropShadow_2187_12089"/><feBlend in="SourceGraphic" in2="effect1_dropShadow_2187_12089" result="shape"/></filter></defs></svg>